<?xml version="1.0" ?><svg height="295px" version="1.1" viewBox="0 0 295 295" width="295px" xmlns="http://www.w3.org/2000/svg" xmlns:xlink="http://www.w3.org/1999/xlink"><title/><desc/><defs/><g fill="none" fill-rule="evenodd" id="Page-1" stroke="none" stroke-width="1"><g fill-rule="nonzero" id="side-menu"><path d="M288.842,0 C285.529,0 282.842,2.687 282.842,6 L282.842,51.992 L29.421,51.992 C26.108,51.992 23.421,54.679 23.421,57.992 C23.421,61.305 26.108,63.992 29.421,63.992 L282.842,63.992 L282.842,282.843 L216.588,282.843 L216.588,96.421 C216.588,93.108 213.901,90.421 210.588,90.421 C207.275,90.421 204.588,93.108 204.588,96.421 L204.588,282.842 L12,282.842 L12,12 L251.421,12 C254.734,12 257.421,9.313 257.421,6 C257.421,2.687 254.734,0 251.421,0 L6,0 C2.687,0 0,2.687 0,6 L0,288.843 C0,292.156 2.687,294.843 6,294.843 L288.842,294.843 C292.155,294.843 294.842,292.156 294.842,288.843 L294.842,6 C294.842,2.687 292.156,0 288.842,0 Z" fill="#000000" id="Shape"/><path d="M227.504,102.957 L271.504,102.957 C274.817,102.957 277.504,100.27 277.504,96.957 C277.504,93.644 274.817,90.957 271.504,90.957 L227.504,90.957 C224.191,90.957 221.504,93.644 221.504,96.957 C221.504,100.27 224.191,102.957 227.504,102.957 Z" fill="#FB4A5E" id="Shape"/><path d="M227.504,163.957 L271.504,163.957 C274.817,163.957 277.504,161.27 277.504,157.957 C277.504,154.644 274.817,151.957 271.504,151.957 L227.504,151.957 C224.191,151.957 221.504,154.644 221.504,157.957 C221.504,161.27 224.191,163.957 227.504,163.957 Z" fill="#FB4A5E" id="Shape"/><path d="M227.504,133.457 L271.504,133.457 C274.817,133.457 277.504,130.77 277.504,127.457 C277.504,124.144 274.817,121.457 271.504,121.457 L227.504,121.457 C224.191,121.457 221.504,124.144 221.504,127.457 C221.504,130.77 224.191,133.457 227.504,133.457 Z" fill="#FB4A5E" id="Shape"/><path d="M227.504,194.457 L271.504,194.457 C274.817,194.457 277.504,191.77 277.504,188.457 C277.504,185.144 274.817,182.457 271.504,182.457 L227.504,182.457 C224.191,182.457 221.504,185.144 221.504,188.457 C221.504,191.77 224.191,194.457 227.504,194.457 Z" fill="#FB4A5E" id="Shape"/><path d="M227.504,255.457 L271.504,255.457 C274.817,255.457 277.504,252.77 277.504,249.457 C277.504,246.144 274.817,243.457 271.504,243.457 L227.504,243.457 C224.191,243.457 221.504,246.144 221.504,249.457 C221.504,252.77 224.191,255.457 227.504,255.457 Z" fill="#FB4A5E" id="Shape"/><path d="M227.504,224.957 L271.504,224.957 C274.817,224.957 277.504,222.27 277.504,218.957 C277.504,215.644 274.817,212.957 271.504,212.957 L227.504,212.957 C224.191,212.957 221.504,215.644 221.504,218.957 C221.504,222.27 224.191,224.957 227.504,224.957 Z" fill="#FB4A5E" id="Shape"/><path d="M27.681,27.751 C26.571,28.871 25.931,30.411 25.931,32.001 C25.931,33.581 26.571,35.121 27.681,36.241 C28.801,37.351 30.341,38.001 31.931,38.001 C33.501,38.001 35.051,37.351 36.171,36.241 C37.28,35.121 37.931,33.581 37.931,32.001 C37.931,30.411 37.281,28.871 36.171,27.751 C35.051,26.641 33.511,26.001 31.931,26.001 C30.341,26.001 28.801,26.641 27.681,27.751 Z" fill="#FB4A5E" id="Shape"/><path d="M47.681,27.751 C46.561,28.871 45.921,30.421 45.921,31.991 C45.921,33.571 46.561,35.121 47.681,36.241 C48.791,37.351 50.341,37.991 51.921,37.991 C53.501,37.991 55.051,37.351 56.161,36.241 C57.28,35.121 57.921,33.571 57.921,31.991 C57.921,30.421 57.28,28.871 56.161,27.751 C55.041,26.631 53.501,25.991 51.921,25.991 C50.341,25.991 48.801,26.631 47.681,27.751 Z" fill="#FB4A5E" id="Shape"/><path d="M67.671,27.751 C66.561,28.871 65.911,30.421 65.911,32.001 C65.911,33.581 66.56,35.121 67.671,36.241 C68.791,37.361 70.341,38.001 71.921,38.001 C73.49,38.001 75.041,37.361 76.161,36.241 C77.28,35.121 77.921,33.571 77.921,32.001 C77.921,30.421 77.28,28.871 76.161,27.751 C75.041,26.641 73.49,25.991 71.921,25.991 C70.341,25.991 68.792,26.641 67.671,27.751 Z" fill="#FB4A5E" id="Shape"/></g></g></svg>